<svg width="53" height="31" viewBox="0 0 53 31" fill="none" xmlns="http://www.w3.org/2000/svg">
<path fill-rule="evenodd" clip-rule="evenodd" d="M0.000152588 15.5C0.000152588 24.1299 6.86819 31 15.3335 31H37C45.4685 31 52.3333 24.1299 52.3333 15.5C52.3333 6.94269 45.4685 0 37 0H15.3335C6.86819 0 0.000152588 6.94269 0.000152588 15.5ZM21.875 15.3125C21.875 18.7297 19.1048 21.5 15.6875 21.5C12.2702 21.5 9.5 18.7297 9.5 15.3125C9.5 11.8953 12.2702 9.125 15.6875 9.125C19.1048 9.125 21.875 11.8953 21.875 15.3125ZM16.375 5H15V7.75H16.375V5ZM15 25.625V22.875H16.375V25.625H15ZM26 14.625H23.25V16H26V14.625ZM5.375 14.625H8.125V16H5.375V14.625ZM21.5205 20.1739L20.5483 21.1461L22.4928 23.0907L23.4651 22.1184L21.5205 20.1739ZM7.90967 8.50659L8.88193 7.5343L10.8264 9.47888L9.85419 10.4511L7.90967 8.50659ZM9.85373 20.1734L7.90918 22.1179L8.88147 23.0902L10.826 21.1457L9.85373 20.1734ZM20.5485 9.47906L22.493 7.53455L23.4653 8.50677L21.5207 10.4513L20.5485 9.47906Z" fill="black"/>
</svg>
