<svg width="58" height="39" viewBox="0 0 58 39" fill="none" xmlns="http://www.w3.org/2000/svg">
<path d="M15.531 35.8432C5.90276 35.8432 0 27.7632 0 19.0058C0 9.76461 5.27377 2.36197 15.4343 2.36197C22.8853 2.36197 28.6429 6.81323 29.1267 13.103H22.4982C22.1595 10.1517 19.0146 7.82928 15.4343 7.82928C10.2089 7.82928 6.67689 11.8935 6.67689 19.3445C6.67689 24.4731 9.28958 30.3759 15.3859 30.3759C21.0951 30.3759 23.0304 27.5696 23.0304 23.2151H16.0632V17.893H29.1267V23.1668C29.1751 30.6178 25.9818 35.8432 15.531 35.8432Z" fill="black"/>
<path d="M34.3037 0.184727C33.6264 -0.202339 32.7555 0.0395763 32.32 0.716942C32.1265 1.05562 32.0781 1.44269 32.1749 1.82976L34.9327 5.89395C40.2549 13.8772 40.2549 24.2796 34.9327 32.2628L32.1749 36.327C31.933 37.1011 32.4168 37.8753 33.1425 38.1172C33.5296 38.214 33.9167 38.1656 34.2553 37.972L57.2858 20.5541C58.0599 19.9735 58.2534 18.8123 57.6245 18.0381C57.5277 17.893 57.4309 17.7962 57.2858 17.6995L34.3037 0.184727Z" fill="#BFD732"/>
</svg>
