<svg width="140" height="40" viewBox="0 0 140 40" fill="none" xmlns="http://www.w3.org/2000/svg">
<path d="M11.9452 26.326H2.06454V24.3654H11.9452V26.326ZM2.43798 34.7989H0V16.4973H2.43798V34.7989ZM14.0827 34.7989H11.6448V16.4973H14.0827V34.7989ZM17.4049 27.8618C17.4049 26.5448 17.6539 25.3693 18.156 24.3311C18.6625 23.2886 19.375 22.4649 20.2936 21.86C21.2164 21.2508 22.3109 20.9462 23.5771 20.9462C24.8605 20.9462 25.9679 21.2508 26.895 21.86C27.8264 22.4649 28.5432 23.2886 29.0411 24.3311C29.539 25.3693 29.7879 26.5448 29.7879 27.8618V28.1492C29.7879 29.4577 29.539 30.6332 29.0411 31.6757C28.5432 32.7182 27.8307 33.5419 26.9036 34.1468C25.9765 34.7474 24.8777 35.052 23.6029 35.052C22.3281 35.052 21.2293 34.7474 20.3022 34.1468C19.375 33.5419 18.6625 32.7182 18.156 31.6757C17.6539 30.6332 17.4049 29.4577 17.4049 28.1492V27.8618ZM19.7527 28.1492C19.7527 29.0459 19.8987 29.8781 20.182 30.6375C20.4653 31.4011 20.8945 32.0146 21.4568 32.4737C22.0233 32.9327 22.7401 33.1644 23.6029 33.1644C24.457 33.1644 25.1695 32.9327 25.7318 32.4737C26.2984 32.0146 26.7233 31.4011 27.0109 30.6375C27.2942 29.8781 27.4358 29.0459 27.4358 28.1492V27.8618C27.4358 26.9652 27.2942 26.1329 27.0109 25.3735C26.7233 24.6099 26.2984 23.9964 25.7275 23.5331C25.1566 23.0655 24.4398 22.8338 23.5771 22.8338C22.7315 22.8338 22.0233 23.0655 21.4525 23.5331C20.8816 23.9964 20.4567 24.6099 20.1777 25.3735C19.8944 26.1329 19.7527 26.9652 19.7527 27.8618V28.1492ZM35.0588 34.7989H32.7066V21.1993H34.9944L35.0588 23.3358V34.7989ZM39.2952 23.2714C39.0934 23.2328 38.9089 23.2028 38.7372 23.1899C38.5655 23.1813 38.368 23.1727 38.1535 23.1727C37.4409 23.1727 36.84 23.3186 36.3464 23.6146C35.8571 23.9063 35.4794 24.3096 35.209 24.8244C34.9429 25.3392 34.7755 25.9313 34.7068 26.5919L34.0415 26.9695C34.0415 25.8712 34.1874 24.8673 34.4793 23.9578C34.7755 23.0483 35.2348 22.319 35.8571 21.7699C36.4838 21.2207 37.2864 20.9462 38.265 20.9462C38.4239 20.9462 38.617 20.9676 38.8359 21.0062C39.0591 21.0406 39.2136 21.0835 39.2952 21.1221V23.2714ZM43.7848 34.7989H41.4327V21.1993H43.6603L43.7848 24.1037V34.7989ZM42.2525 27.4328C42.2654 26.193 42.5058 25.0861 42.9693 24.108C43.4286 23.1341 44.0724 22.3619 44.8965 21.7956C45.7249 21.2293 46.6864 20.9462 47.7852 20.9462C48.6822 20.9462 49.4548 21.1135 50.103 21.4438C50.7554 21.7741 51.2575 22.3018 51.6138 23.0226C51.9701 23.7433 52.146 24.7 52.146 25.8884V34.7989H49.7939V25.8626C49.7939 25.1505 49.6909 24.5756 49.4892 24.1423C49.2831 23.7047 48.9784 23.3872 48.5749 23.1899C48.1715 22.9968 47.6779 22.8982 47.0941 22.8982C46.5147 22.8982 45.991 23.0183 45.5189 23.2628C45.051 23.5031 44.6432 23.8377 44.2999 24.2667C43.9565 24.6957 43.6947 25.1805 43.5101 25.7296C43.3255 26.2788 43.2311 26.8579 43.2311 27.4714L42.2525 27.4328ZM61.3142 35.052C60.048 35.052 58.9449 34.7689 58.0092 34.2026C57.0778 33.6363 56.3524 32.8598 55.8373 31.8688C55.3223 30.882 55.0605 29.7495 55.0605 28.4753V27.9347C55.0605 26.4632 55.3437 25.2019 55.9103 24.1595C56.4769 23.117 57.2151 22.319 58.1251 21.7699C59.035 21.2207 59.9965 20.9462 61.0094 20.9462C62.3186 20.9462 63.383 21.2379 64.2114 21.8213C65.0355 22.4048 65.645 23.1942 66.0356 24.1981C66.4219 25.1977 66.6193 26.3302 66.6193 27.5958V28.6383H56.4597V26.755H64.2672V26.5791C64.2329 25.9742 64.1127 25.3864 63.9024 24.8116C63.6921 24.241 63.3573 23.7648 62.898 23.3915C62.4345 23.0183 61.8078 22.8338 61.0094 22.8338C60.3055 22.8338 59.6831 23.0312 59.1423 23.4301C58.6015 23.8291 58.1809 24.4083 57.8718 25.1634C57.5671 25.9227 57.4126 26.8451 57.4126 27.9347V28.4753C57.4126 29.3419 57.5714 30.127 57.8933 30.8348C58.2109 31.5427 58.6702 32.109 59.2754 32.5294C59.8806 32.9541 60.6017 33.1644 61.4387 33.1644C62.2585 33.1644 62.9538 32.9971 63.5247 32.6624C64.0955 32.3278 64.5934 31.8773 65.0226 31.3154L66.4434 32.4222C66.0056 33.0957 65.3789 33.7006 64.5634 34.2412C63.7436 34.7817 62.6619 35.052 61.3142 35.052ZM71.6756 34.7989H69.3235V21.1993H71.6112L71.6756 23.3358V34.7989ZM75.912 23.2714C75.7103 23.2328 75.5257 23.2028 75.354 23.1899C75.1823 23.1813 74.9849 23.1727 74.7703 23.1727C74.0578 23.1727 73.4569 23.3186 72.9633 23.6146C72.4739 23.9063 72.0962 24.3096 71.8258 24.8244C71.5597 25.3392 71.3923 25.9313 71.3236 26.5919L70.6583 26.9695C70.6583 25.8712 70.8043 24.8673 71.0961 23.9578C71.3923 23.0483 71.8516 22.319 72.474 21.7699C73.1006 21.2207 73.9033 20.9462 74.8819 20.9462C75.0407 20.9462 75.2338 20.9676 75.4527 21.0062C75.6759 21.0406 75.8305 21.0835 75.912 21.1221V23.2714Z" fill="#444444"/>
<path fill-rule="evenodd" clip-rule="evenodd" d="M88.4823 13.6799C94.8818 13.6799 100.07 18.8651 100.07 25.2614C100.07 29.1996 98.1025 32.678 95.0973 34.7704H81.8674C78.8622 32.678 76.8951 29.1996 76.8951 25.2614C76.8951 18.8651 82.0829 13.6799 88.4823 13.6799Z" fill="#444444"/>
<path fill-rule="evenodd" clip-rule="evenodd" d="M84.9666 20.3241C88.1334 20.3241 90.8755 23.2537 91.0913 26.8675C91.307 30.4814 88.9146 33.4109 85.7478 33.4109C82.581 33.4109 79.8389 30.4814 79.6231 26.8675C79.4074 23.2537 81.7997 20.3241 84.9666 20.3241Z" fill="white"/>
<path fill-rule="evenodd" clip-rule="evenodd" d="M96.9044 12.4101L94.5978 10.204C94.5978 10.204 92.8081 6.46753 88.9108 2.81054C88.533 1.18079 87.32 -0.707286 85.3912 0.266538C83.7806 0.266538 82.8062 0.524852 82.8062 0.524852L84.914 0.962116C84.914 0.962116 85.0531 1.53851 85.1724 1.81672C85.2918 2.09497 85.1327 3.10859 84.7748 3.54586C84.4168 3.98312 84.1584 6.12968 85.2123 8.2165C85.7293 9.15059 87.6183 10.6014 88.1552 10.7604C88.3739 10.8797 88.3541 11.3368 88.0359 11.6747C87.7177 12.0125 87.2007 13.225 86.8627 13.384C86.5246 13.5429 85.8287 13.6621 85.6696 14.4571C86.3258 14.0199 87.1609 13.9007 87.1609 13.9007C87.1609 13.9007 88.1751 12.3307 88.354 11.953C88.5329 11.5753 88.7517 11.2971 88.6324 10.9592C89.2885 10.84 90.3425 10.8797 90.3425 10.8797C90.3425 10.8797 90.4618 11.2772 90.1437 11.7542C89.8255 12.2312 89.3482 13.364 89.3085 13.7814C89.2687 14.1988 89.7658 14.0995 89.7658 14.0995C89.7658 14.0995 89.8653 12.9268 90.3226 12.251C90.7799 11.5753 90.7799 10.7009 90.7799 10.7009C90.7799 10.7009 93.4047 10.6213 93.8421 10.6213C94.2796 10.6213 95.5124 11.8734 95.8505 12.2908C96.1885 12.7082 97.143 12.7678 96.9044 12.4101Z" fill="#444444"/>
<path d="M100.319 19.7433L101.551 16.4688H103.715L103.5 19.0729L101.679 24.3367C101.549 22.6836 101.071 21.1281 100.319 19.7433ZM102.56 19.0729L102.32 16.4688H104.496L111.411 34.7703H108.003L102.56 19.0729ZM107.788 30.5832H100.423C100.847 29.7646 101.177 28.8888 101.397 27.9705H107.788V30.5832ZM116.265 40H113.145V21.1707H116.025L116.265 23.7834V40ZM125.094 28.0949C125.094 29.4206 124.888 30.6047 124.48 31.6472C124.077 32.6897 123.48 33.5134 122.695 34.1183C121.914 34.7189 120.957 35.0235 119.823 35.0235C118.682 35.0235 117.737 34.7446 116.986 34.1869C116.239 33.6292 115.651 32.8613 115.235 31.8788C114.814 30.9007 114.527 29.781 114.368 28.524V27.6316C114.527 26.2888 114.814 25.1176 115.235 24.118C115.651 23.1184 116.235 22.3333 116.982 21.767C117.729 21.2008 118.664 20.9176 119.785 20.9176C120.935 20.9176 121.901 21.2093 122.691 21.7885C123.48 22.3634 124.077 23.1742 124.48 24.2124C124.888 25.2506 125.094 26.4604 125.094 27.8333V28.0949ZM121.974 27.8333C121.974 27.0181 121.871 26.2802 121.665 25.6196C121.459 24.9589 121.132 24.4355 120.686 24.0494C120.235 23.6633 119.652 23.4702 118.931 23.4702C118.411 23.4702 117.961 23.556 117.587 23.7276C117.209 23.8992 116.892 24.1395 116.634 24.4527C116.381 24.7615 116.179 25.1262 116.038 25.5509C115.896 25.9756 115.797 26.439 115.737 26.9409V29.2147C115.836 29.8196 116.003 30.373 116.239 30.8749C116.475 31.3769 116.81 31.7759 117.252 32.0762C117.69 32.3722 118.261 32.5223 118.956 32.5223C119.677 32.5223 120.261 32.3164 120.703 31.9089C121.15 31.5056 121.472 30.9693 121.673 30.3001C121.875 29.6351 121.974 28.9015 121.974 28.0949V27.8333ZM130.751 40H127.631V21.1707H130.511L130.751 23.7834V40ZM139.58 28.0949C139.58 29.4206 139.374 30.6047 138.967 31.6472C138.563 32.6897 137.967 33.5134 137.181 34.1183C136.4 34.7189 135.443 35.0235 134.31 35.0235C133.168 35.0235 132.224 34.7446 131.472 34.1869C130.726 33.6292 130.138 32.8613 129.721 31.8788C129.301 30.9007 129.013 29.781 128.854 28.524V27.6316C129.013 26.2888 129.301 25.1176 129.721 24.118C130.138 23.1184 130.721 22.3333 131.468 21.767C132.215 21.2008 133.151 20.9176 134.271 20.9176C135.421 20.9176 136.387 21.2093 137.177 21.7885C137.967 22.3634 138.563 23.1742 138.967 24.2124C139.374 25.2506 139.58 26.4604 139.58 27.8333V28.0949ZM136.46 27.8333C136.46 27.0181 136.357 26.2802 136.151 25.6196C135.945 24.9589 135.619 24.4355 135.172 24.0494C134.722 23.6633 134.138 23.4702 133.417 23.4702C132.897 23.4702 132.447 23.556 132.073 23.7276C131.696 23.8992 131.378 24.1395 131.12 24.4527C130.867 24.7615 130.666 25.1262 130.524 25.5509C130.382 25.9756 130.283 26.439 130.223 26.9409V29.2147C130.322 29.8196 130.49 30.373 130.726 30.8749C130.962 31.3769 131.296 31.7759 131.739 32.0762C132.176 32.3722 132.747 32.5223 133.443 32.5223C134.164 32.5223 134.747 32.3164 135.19 31.9089C135.636 31.5056 135.958 30.9693 136.16 30.3001C136.361 29.6351 136.46 28.9015 136.46 28.0949V27.8333Z" fill="#BFD732"/>
</svg>
