<svg width="46" height="31" viewBox="0 0 46 31" fill="none" xmlns="http://www.w3.org/2000/svg">
<path d="M15.3333 31C6.86806 31 1.23762e-07 24.1299 8.78216e-07 15.5C1.62632e-06 6.94271 6.86806 -2.46735e-06 15.3333 -1.72729e-06L30.6667 -3.86808e-07C39.1351 3.53529e-07 46 6.94271 46 15.5C46 24.1299 39.1351 31 30.6667 31L15.3333 31ZM15.3333 7.75C11.1007 7.75 7.66667 11.2214 7.66667 15.5C7.66667 19.8513 11.1007 23.25 15.3333 23.25C19.6378 23.25 23 19.8513 23 15.5C23 11.2214 19.6378 7.75 15.3333 7.75Z" fill="black"/>
</svg>
